/////////////////////////////////////////////////////////////////////////////
// sfz definition file
// copyright Chicken Systems, Inc.
// -------------------------------------------------------------------------
// Application: Translator 6 6.0, Build 27
// Vendor: 


<group> group_label=NewGroups-01

<region> sample=..\..\Samples\PRE5\P_1_Pre5_C0_RR1.wav lokey=0 hikey=12 end=557876 loop_mode=loop_continuous loopstart=189235 loopend=557875 pitch_keycenter=12 bend_up=200 bend_down=-200 amp_veltrack=38.582676 ampeg_release=0.1 pitchlfo_freq=5 

<region> sample=..\..\Samples\PRE5\P_3_Pre5_C#0_RR1.wav lokey=13 hikey=13 end=551470 loop_mode=loop_continuous loopstart=186969 loopend=551469 pitch_keycenter=13 bend_up=200 bend_down=-200 amp_veltrack=38.582676 ampeg_release=0.1 pitchlfo_freq=5 

<region> sample=..\..\Samples\PRE5\P_5_Pre5_D0_RR1.wav lokey=14 hikey=14 end=552526 loop_mode=loop_continuous loopstart=188025 loopend=552525 pitch_keycenter=14 bend_up=200 bend_down=-200 amp_veltrack=38.582676 ampeg_release=0.1 pitchlfo_freq=5 

<region> sample=..\..\Samples\PRE5\P_7_Pre5_D#0_RR1.wav lokey=15 hikey=15 end=568409 loop_mode=loop_continuous loopstart=193408 loopend=568408 pitch_keycenter=15 bend_up=200 bend_down=-200 amp_veltrack=38.582676 ampeg_release=0.1 pitchlfo_freq=5 

<region> sample=..\..\Samples\PRE5\P_9_Pre5_E0_RR1.wav lokey=16 hikey=16 end=537233 loop_mode=loop_continuous loopstart=182938 loopend=537232 pitch_keycenter=16 bend_up=200 bend_down=-200 amp_veltrack=38.582676 ampeg_release=0.1 pitchlfo_freq=5 

<region> sample=..\..\Samples\PRE5\P_11_Pre5_F0_RR1.wav lokey=17 hikey=17 end=536795 loop_mode=loop_continuous loopstart=182500 loopend=536794 pitch_keycenter=17 bend_up=200 bend_down=-200 amp_veltrack=38.582676 ampeg_release=0.1 pitchlfo_freq=5 

<region> sample=..\..\Samples\PRE5\P_13_Pre5_F#0_RR1.wav lokey=18 hikey=18 end=537946 loop_mode=loop_continuous loopstart=183651 loopend=537945 pitch_keycenter=18 bend_up=200 bend_down=-200 amp_veltrack=38.582676 ampeg_release=0.1 pitchlfo_freq=5 

<region> sample=..\..\Samples\PRE5\P_15_Pre5_G0_RR1.wav lokey=19 hikey=19 end=580843 loop_mode=loop_continuous loopstart=196842 loopend=580842 pitch_keycenter=19 bend_up=200 bend_down=-200 amp_veltrack=38.582676 ampeg_release=0.1 pitchlfo_freq=5 

<region> sample=..\..\Samples\PRE5\P_17_Pre5_G#0_RR1.wav lokey=20 hikey=20 end=557284 loop_mode=loop_continuous loopstart=188643 loopend=557283 pitch_keycenter=20 bend_up=200 bend_down=-200 amp_veltrack=38.582676 ampeg_release=0.1 pitchlfo_freq=5 

<region> sample=..\..\Samples\PRE5\P_19_Pre5_A0_RR1.wav lokey=21 hikey=21 end=564053 loop_mode=loop_continuous loopstart=190804 loopend=564052 pitch_keycenter=21 bend_up=200 bend_down=-200 amp_veltrack=38.582676 ampeg_release=0.1 pitchlfo_freq=5 

<region> sample=..\..\Samples\PRE5\P_21_Pre5_A#0_RR1.wav lokey=22 hikey=22 end=545834 loop_mode=loop_continuous loopstart=185833 loopend=545833 pitch_keycenter=22 bend_up=200 bend_down=-200 amp_veltrack=38.582676 ampeg_release=0.1 pitchlfo_freq=5 

<region> sample=..\..\Samples\PRE5\P_23_Pre5_B0_RR1.wav lokey=23 hikey=23 end=552236 loop_mode=loop_continuous loopstart=187735 loopend=552235 pitch_keycenter=23 bend_up=200 bend_down=-200 amp_veltrack=38.582676 ampeg_release=0.1 pitchlfo_freq=5 

<region> sample=..\..\Samples\PRE5\P_25_Pre5_C1_RR1.wav lokey=24 hikey=24 end=559339 loop_mode=loop_continuous loopstart=190698 loopend=559338 pitch_keycenter=24 bend_up=200 bend_down=-200 amp_veltrack=38.582676 ampeg_release=0.1 pitchlfo_freq=5 

<region> sample=..\..\Samples\PRE5\P_27_Pre5_C#1_RR1.wav lokey=25 hikey=25 end=557337 loop_mode=loop_continuous loopstart=188696 loopend=557336 pitch_keycenter=25 bend_up=200 bend_down=-200 amp_veltrack=38.582676 ampeg_release=0.1 pitchlfo_freq=5 

<region> sample=..\..\Samples\PRE5\P_29_Pre5_D1_RR1.wav lokey=26 hikey=26 end=558917 loop_mode=loop_continuous loopstart=190276 loopend=558916 pitch_keycenter=26 bend_up=200 bend_down=-200 amp_veltrack=38.582676 ampeg_release=0.1 pitchlfo_freq=5 

<region> sample=..\..\Samples\PRE5\P_31_Pre5_D#1_RR1.wav lokey=27 hikey=27 end=558230 loop_mode=loop_continuous loopstart=189589 loopend=558229 pitch_keycenter=27 bend_up=200 bend_down=-200 amp_veltrack=38.582676 ampeg_release=0.1 pitchlfo_freq=5 

<region> sample=..\..\Samples\PRE5\P_33_Pre5_E1_RR1.wav lokey=28 hikey=28 end=565654 loop_mode=loop_continuous loopstart=192405 loopend=565653 pitch_keycenter=28 bend_up=200 bend_down=-200 amp_veltrack=38.582676 ampeg_release=0.1 pitchlfo_freq=5 

<region> sample=..\..\Samples\PRE5\P_35_Pre5_F1_RR1.wav lokey=29 hikey=29 end=551496 loop_mode=loop_continuous loopstart=186995 loopend=551495 pitch_keycenter=29 bend_up=200 bend_down=-200 amp_veltrack=38.582676 ampeg_release=0.1 pitchlfo_freq=5 

<region> sample=..\..\Samples\PRE5\P_37_Pre5_F#1_RR1.wav lokey=30 hikey=30 end=564042 loop_mode=loop_continuous loopstart=190793 loopend=564041 pitch_keycenter=30 bend_up=200 bend_down=-200 amp_veltrack=38.582676 ampeg_release=0.1 pitchlfo_freq=5 

<region> sample=..\..\Samples\PRE5\P_39_Pre5_G1_RR1.wav lokey=31 hikey=31 end=564206 loop_mode=loop_continuous loopstart=190957 loopend=564205 pitch_keycenter=31 bend_up=200 bend_down=-200 amp_veltrack=38.582676 ampeg_release=0.1 pitchlfo_freq=5 

<region> sample=..\..\Samples\PRE5\P_41_Pre5_G#1_RR1.wav lokey=32 hikey=32 end=558563 loop_mode=loop_continuous loopstart=189922 loopend=558562 pitch_keycenter=32 bend_up=200 bend_down=-200 amp_veltrack=38.582676 ampeg_release=0.1 pitchlfo_freq=5 

<region> sample=..\..\Samples\PRE5\P_43_Pre5_A1_RR1.wav lokey=33 hikey=33 end=552135 loop_mode=loop_continuous loopstart=187634 loopend=552134 pitch_keycenter=33 bend_up=200 bend_down=-200 amp_veltrack=38.582676 ampeg_release=0.1 pitchlfo_freq=5 

<region> sample=..\..\Samples\PRE5\P_45_Pre5_A#1_RR1.wav lokey=34 hikey=34 end=552611 loop_mode=loop_continuous loopstart=188110 loopend=552610 pitch_keycenter=34 bend_up=200 bend_down=-200 amp_veltrack=38.582676 ampeg_release=0.1 pitchlfo_freq=5 

<region> sample=..\..\Samples\PRE5\P_47_Pre5_B1_RR1.wav lokey=35 hikey=127 end=545179 loop_mode=loop_continuous loopstart=185178 loopend=545178 pitch_keycenter=35 bend_up=200 bend_down=-200 amp_veltrack=38.582676 ampeg_release=0.1 pitchlfo_freq=5 

<group> group_label=NewGroups-02

<region> sample=..\..\Samples\PRE5\P_2_Pre5_C0_RR2.wav lokey=0 hikey=12 end=551179 loop_mode=loop_continuous loopstart=186678 loopend=551178 pitch_keycenter=12 bend_up=200 bend_down=-200 amp_veltrack=38.582676 ampeg_release=0.1 pitchlfo_freq=5 

<region> sample=..\..\Samples\PRE5\P_4_Pre5_C#0_RR2.wav lokey=13 hikey=13 end=564428 loop_mode=loop_continuous loopstart=191179 loopend=564427 pitch_keycenter=13 bend_up=200 bend_down=-200 amp_veltrack=38.582676 ampeg_release=0.1 pitchlfo_freq=5 

<region> sample=..\..\Samples\PRE5\P_6_Pre5_D0_RR2.wav lokey=14 hikey=14 end=557934 loop_mode=loop_continuous loopstart=189293 loopend=557933 pitch_keycenter=14 bend_up=200 bend_down=-200 amp_veltrack=38.582676 ampeg_release=0.1 pitchlfo_freq=5 

<region> sample=..\..\Samples\PRE5\P_8_Pre5_D#0_RR2.wav lokey=15 hikey=15 end=580579 loop_mode=loop_continuous loopstart=196578 loopend=580578 pitch_keycenter=15 bend_up=200 bend_down=-200 amp_veltrack=38.582676 ampeg_release=0.1 pitchlfo_freq=5 

<region> sample=..\..\Samples\PRE5\P_10_Pre5_E0_RR2.wav lokey=16 hikey=16 end=567101 loop_mode=loop_continuous loopstart=193852 loopend=567100 pitch_keycenter=16 bend_up=200 bend_down=-200 amp_veltrack=38.582676 ampeg_release=0.1 pitchlfo_freq=5 

<region> sample=..\..\Samples\PRE5\P_12_Pre5_F0_RR2.wav lokey=17 hikey=17 end=570401 loop_mode=loop_continuous loopstart=195400 loopend=570400 pitch_keycenter=17 bend_up=200 bend_down=-200 amp_veltrack=38.582676 ampeg_release=0.1 pitchlfo_freq=5 

<region> sample=..\..\Samples\PRE5\P_14_Pre5_F#0_RR2.wav lokey=18 hikey=18 end=565094 loop_mode=loop_continuous loopstart=191845 loopend=565093 pitch_keycenter=18 bend_up=200 bend_down=-200 amp_veltrack=38.582676 ampeg_release=0.1 pitchlfo_freq=5 

<region> sample=..\..\Samples\PRE5\P_16_Pre5_G0_RR2.wav lokey=19 hikey=19 end=564296 loop_mode=loop_continuous loopstart=191047 loopend=564295 pitch_keycenter=19 bend_up=200 bend_down=-200 amp_veltrack=38.582676 ampeg_release=0.1 pitchlfo_freq=5 

<region> sample=..\..\Samples\PRE5\P_18_Pre5_G#0_RR2.wav lokey=20 hikey=20 end=565485 loop_mode=loop_continuous loopstart=192236 loopend=565484 pitch_keycenter=20 bend_up=200 bend_down=-200 amp_veltrack=38.582676 ampeg_release=0.1 pitchlfo_freq=5 

<region> sample=..\..\Samples\PRE5\P_20_Pre5_A0_RR2.wav lokey=21 hikey=21 end=544851 loop_mode=loop_continuous loopstart=184850 loopend=544850 pitch_keycenter=21 bend_up=200 bend_down=-200 amp_veltrack=38.582676 ampeg_release=0.1 pitchlfo_freq=5 

<region> sample=..\..\Samples\PRE5\P_22_Pre5_A#0_RR2.wav lokey=22 hikey=22 end=551892 loop_mode=loop_continuous loopstart=187391 loopend=551891 pitch_keycenter=22 bend_up=200 bend_down=-200 amp_veltrack=38.582676 ampeg_release=0.1 pitchlfo_freq=5 

<region> sample=..\..\Samples\PRE5\P_24_Pre5_B0_RR2.wav lokey=23 hikey=23 end=558029 loop_mode=loop_continuous loopstart=189388 loopend=558028 pitch_keycenter=23 bend_up=200 bend_down=-200 amp_veltrack=38.582676 ampeg_release=0.1 pitchlfo_freq=5 

<region> sample=..\..\Samples\PRE5\P_26_Pre5_C1_RR2.wav lokey=24 hikey=24 end=565469 loop_mode=loop_continuous loopstart=192220 loopend=565468 pitch_keycenter=24 bend_up=200 bend_down=-200 amp_veltrack=38.582676 ampeg_release=0.1 pitchlfo_freq=5 

<region> sample=..\..\Samples\PRE5\P_28_Pre5_C#1_RR2.wav lokey=25 hikey=25 end=594951 loop_mode=loop_continuous loopstart=201734 loopend=594950 pitch_keycenter=25 bend_up=200 bend_down=-200 amp_veltrack=38.582676 ampeg_release=0.1 pitchlfo_freq=5 

<region> sample=..\..\Samples\PRE5\P_30_Pre5_D1_RR2.wav lokey=26 hikey=26 end=567598 loop_mode=loop_continuous loopstart=194349 loopend=567597 pitch_keycenter=26 bend_up=200 bend_down=-200 amp_veltrack=38.582676 ampeg_release=0.1 pitchlfo_freq=5 

<region> sample=..\..\Samples\PRE5\P_32_Pre5_D#1_RR2.wav lokey=27 hikey=27 end=551876 loop_mode=loop_continuous loopstart=187375 loopend=551875 pitch_keycenter=27 bend_up=200 bend_down=-200 amp_veltrack=38.582676 ampeg_release=0.1 pitchlfo_freq=5 

<region> sample=..\..\Samples\PRE5\P_34_Pre5_E1_RR2.wav lokey=28 hikey=28 end=567043 loop_mode=loop_continuous loopstart=193794 loopend=567042 pitch_keycenter=28 bend_up=200 bend_down=-200 amp_veltrack=38.582676 ampeg_release=0.1 pitchlfo_freq=5 

<region> sample=..\..\Samples\PRE5\P_36_Pre5_F1_RR2.wav lokey=29 hikey=29 end=557062 loop_mode=loop_continuous loopstart=188421 loopend=557061 pitch_keycenter=29 bend_up=200 bend_down=-200 amp_veltrack=38.582676 ampeg_release=0.1 pitchlfo_freq=5 

<region> sample=..\..\Samples\PRE5\P_38_Pre5_F#1_RR2.wav lokey=30 hikey=30 end=557850 loop_mode=loop_continuous loopstart=189209 loopend=557849 pitch_keycenter=30 bend_up=200 bend_down=-200 amp_veltrack=38.582676 ampeg_release=0.1 pitchlfo_freq=5 

<region> sample=..\..\Samples\PRE5\P_40_Pre5_G1_RR2.wav lokey=31 hikey=31 end=568336 loop_mode=loop_continuous loopstart=193335 loopend=568335 pitch_keycenter=31 bend_up=200 bend_down=-200 amp_veltrack=38.582676 ampeg_release=0.1 pitchlfo_freq=5 

<region> sample=..\..\Samples\PRE5\P_42_Pre5_G#1_RR2.wav lokey=32 hikey=32 end=568182 loop_mode=loop_continuous loopstart=193181 loopend=568181 pitch_keycenter=32 bend_up=200 bend_down=-200 amp_veltrack=38.582676 ampeg_release=0.1 pitchlfo_freq=5 

<region> sample=..\..\Samples\PRE5\P_44_Pre5_A1_RR2.wav lokey=33 hikey=33 end=558452 loop_mode=loop_continuous loopstart=189811 loopend=558451 pitch_keycenter=33 bend_up=200 bend_down=-200 amp_veltrack=38.582676 ampeg_release=0.1 pitchlfo_freq=5 

<region> sample=..\..\Samples\PRE5\P_46_Pre5_A#1_RR2.wav lokey=34 hikey=34 end=565368 loop_mode=loop_continuous loopstart=192119 loopend=565367 pitch_keycenter=34 bend_up=200 bend_down=-200 amp_veltrack=38.582676 ampeg_release=0.1 pitchlfo_freq=5 

<region> sample=..\..\Samples\PRE5\P_48_Pre5_B1_RR2.wav lokey=35 hikey=127 end=552695 loop_mode=loop_continuous loopstart=188194 loopend=552694 pitch_keycenter=35 bend_up=200 bend_down=-200 amp_veltrack=38.582676 ampeg_release=0.1 pitchlfo_freq=5 




